Coordinates
version=1
nRows=16
nColumns=40
inDegrees=yes

Units are S.I. units (second, meters, Newtons, ...)
Angles are in degrees.

endheader
time	pelvis_tilt	pelvis_list	pelvis_rotation	pelvis_tx	pelvis_ty	pelvis_tz	hip_flexion_r	hip_adduction_r	hip_rotation_r	knee_angle_r	knee_angle_r_beta	ankle_angle_r	subtalar_angle_r	mtp_angle_r	hip_flexion_l	hip_adduction_l	hip_rotation_l	knee_angle_l	knee_angle_l_beta	ankle_angle_l	subtalar_angle_l	mtp_angle_l	lumbar_extension	lumbar_bending	lumbar_rotation	arm_flex_r	arm_add_r	arm_rot_r	elbow_flex_r	pro_sup_r	wrist_flex_r	wrist_dev_r	arm_flex_l	arm_add_l	arm_rot_l	elbow_flex_l	pro_sup_l	wrist_flex_l	wrist_dev_l
     35.86300000	     -2.77395225	     -5.50173292	      8.46600741	      1.04941924	      0.92087705	      0.44812208	      0.25768020	      4.05880870	    -16.61963098	     12.46366646	     12.46366646	     16.78571910	      1.05398008	     -5.81199643	     29.57648102	     -8.38957312	     -1.47422771	     23.38279139	     23.38279139	      3.48811913	    -11.63268977	      6.78190308	     -9.26981051	      7.09300188	      4.48524447	     29.97769449	    -16.39175056	     -0.57699766	     87.59843284	     44.37351658	      0.00000000	      0.00000000	     -7.05909052	     -9.34250144	     -4.63361774	     31.20099686	     46.47375831	      0.00000000	      0.00000000
     35.87600000	     -2.82115089	     -5.50240995	      8.38126344	      1.05083366	      0.92009570	      0.44609370	     -0.18818117	      3.97487754	    -16.49925156	     12.44069276	     12.44069276	     17.05408057	      1.10523130	     -5.83153435	     29.12584819	     -8.22161469	     -1.31304898	     23.79339920	     23.79339920	      3.52543130	    -11.85584592	      6.64130711	     -8.99186317	      6.94178066	      4.57506402	     29.91145216	    -16.14701697	     -0.43472641	     87.68914261	     44.36769501	      0.00000000	      0.00000000	     -6.77933449	     -9.43222941	     -4.65118268	     31.41136065	     46.47913386	      0.00000000	      0.00000000
     35.88900000	     -2.76934307	     -5.45751241	      8.32513768	      1.05219006	      0.91959899	      0.44396529	     -0.74095403	      3.84819275	    -16.41340737	     12.41227894	     12.41227894	     17.23851338	      1.16859463	     -5.73079152	     28.71375853	     -8.01767463	     -1.06552577	     24.35294242	     24.35294242	      3.58730132	    -12.33389286	      6.39664947	     -8.91136678	      6.73208183	      4.63773626	     29.71146203	    -15.89676484	     -0.23542390	     87.78720514	     44.36122208	      0.00000000	      0.00000000	     -6.43285003	     -9.57304014	     -4.68516795	     31.76386894	     46.48624331	      0.00000000	      0.00000000
     35.90200000	     -2.85778852	     -5.42616784	      8.29682425	      1.05337443	      0.91915091	      0.44162123	     -1.09911137	      3.69085649	    -16.32564410	     12.43976353	     12.43976353	     17.39192763	      1.16987057	     -5.68901866	     28.40830850	     -7.80206224	     -0.80681964	     24.68605743	     24.68605743	      3.87267277	    -12.57000369	      6.16355697	     -8.68615086	      6.54920106	      4.61601326	     29.55226338	    -15.73450436	     -0.10296932	     87.79271979	     44.35792519	      0.00000000	      0.00000000	     -6.05404541	     -9.65050280	     -4.69786426	     32.01072507	     46.49257984	      0.00000000	      0.00000000
     35.91500000	     -2.84485159	     -5.33352902	      8.32748455	      1.05439916	      0.91900945	      0.43910734	     -1.51252194	      3.46027012	    -16.28717536	     12.56485113	     12.56485113	     17.49159729	      1.10350865	     -5.58039744	     28.15807264	     -7.53592485	     -0.55069164	     25.21330309	     25.21330309	      4.16692333	    -12.95252733	      5.87791777	     -8.63630831	      6.27161018	      4.59681361	     29.19447121	    -15.54320426	      0.09921241	     87.68641395	     44.35589043	      0.00000000	      0.00000000	     -5.52378576	     -9.78793146	     -4.71911425	     32.34888496	     46.50191641	      0.00000000	      0.00000000
     35.92800000	     -2.83485350	     -5.26000875	      8.35500486	      1.05528602	      0.91904843	      0.43644133	     -1.82649368	      3.21009003	    -16.26000786	     12.84912606	     12.84912606	     17.56617423	      0.98433759	     -5.41794884	     27.94449139	     -7.29175781	     -0.30089745	     25.71700347	     25.71700347	      4.51675534	    -13.38252026	      5.57088806	     -8.61692507	      6.05390792	      4.58889539	     28.78001442	    -15.49495195	      0.29739175	     87.45004174	     44.35905789	      0.00000000	      0.00000000	     -4.97342290	     -9.92029403	     -4.73866399	     32.73793507	     46.51041609	      0.00000000	      0.00000000
     35.94100000	     -2.92646221	     -5.19090177	      8.33512647	      1.05590140	      0.91909269	      0.43366208	     -1.77383534	      2.86018230	    -16.18485153	     13.61320647	     13.61320647	     17.81436222	      0.72364958	     -4.99525040	     27.82918481	     -7.04343540	     -0.08412764	     26.13337109	     26.13337109	      4.85599373	    -13.89401576	      5.20502582	     -8.50731008	      5.84029286	      4.78550936	     28.34751894	    -15.81926930	      0.57964143	     86.82028976	     44.37929374	      0.00000000	      0.00000000	     -4.37796254	    -10.01116758	     -4.72711343	     33.37964598	     46.50955704	      0.00000000	      0.00000000
     35.95400000	     -2.96518705	     -5.10469971	      8.36998847	      1.05648336	      0.91945682	      0.43075587	     -1.79538146	      2.49926509	    -16.11395648	     14.32296767	     14.32296767	     17.89949252	      0.53119830	     -4.69372526	     27.61388860	     -6.81538567	     -0.02295790	     26.45347879	     26.45347879	      5.31859655	    -14.01615323	      4.89709872	     -8.48113566	      5.62857462	      4.73564155	     27.85756592	    -15.83669543	      0.87664142	     86.24342844	     44.39472995	      0.00000000	      0.00000000	     -3.74319858	    -10.12453765	     -4.67545649	     33.77917373	     46.50569112	      0.00000000	      0.00000000
     35.96700000	     -2.95201018	     -5.11695678	      8.47458870	      1.05699733	      0.92011990	      0.42773909	     -1.92460374	      2.27719249	    -16.21324454	     14.86458830	     14.86458830	     17.72824443	      0.33177840	     -4.59512817	     27.32505512	     -6.67023426	      0.07892477	     26.66970918	     26.66970918	      5.80473982	    -14.05939883	      4.65632124	     -8.53868853	      5.51488036	      4.52993918	     27.26685665	    -15.67090463	      1.11906585	     85.85281819	     44.39956813	      0.00000000	      0.00000000	     -2.98652114	    -10.17564754	     -4.64539822	     34.09405756	     46.51141996	      0.00000000	      0.00000000
     35.98000000	     -3.12409486	     -4.98852113	      8.35272085	      1.05719781	      0.92049003	      0.42483743	     -1.25014826	      1.66336956	    -16.06349708	     16.59585371	     16.59585371	     17.86665685	     -0.20443614	     -4.54329633	     27.15366459	     -6.49165798	     -0.28859076	     26.84280954	     26.84280954	      6.34276559	    -13.82228382	      4.40401344	     -8.40987700	      5.23543373	      4.80946042	     26.74861227	    -16.07099186	      1.53686432	     84.50113478	     44.43882659	      0.00000000	      0.00000000	     -2.19675218	    -10.25447892	     -4.50873393	     34.48203910	     46.49655331	      0.00000000	      0.00000000
     35.99300000	     -3.23611029	     -4.97203443	      8.31054559	      1.05739134	      0.92109906	      0.42188520	     -0.67721780	      1.21409528	    -15.91629600	     18.19855194	     18.19855194	     17.81643766	     -0.75756914	     -4.53064127	     26.89609512	     -6.40052101	     -0.55555680	     26.91695061	     26.91695061	      6.85035433	    -13.53232267	      4.23971987	     -8.30925081	      5.10964464	      4.74383626	     26.24785215	    -16.15082211	      2.11355213	     83.16571107	     44.47574189	      0.00000000	      0.00000000	     -1.44267346	    -10.35256077	     -4.27294914	     34.77612293	     46.46550438	      0.00000000	      0.00000000
     36.00600000	     -3.26495821	     -4.91137475	      8.20568598	      1.05753763	      0.92189084	      0.41901637	     -0.04368253	      0.68399378	    -15.73083765	     20.05214465	     20.05214465	     17.61004251	     -1.40311033	     -4.83658930	     26.44687396	     -6.29882548	     -0.90619412	     26.85905342	     26.85905342	      7.32627394	    -13.24835574	      4.04895037	     -8.37021526	      4.93148004	      4.75466987	     25.64868516	    -16.23507775	      2.55392458	     82.09657548	     44.50205280	      0.00000000	      0.00000000	     -0.67054001	    -10.44581553	     -4.14386401	     35.12411713	     46.45393921	      0.00000000	      0.00000000
     36.01900000	     -3.39281562	     -4.90762715	      8.07994525	      1.05748303	      0.92255742	      0.41628853	      0.96623559	      0.15637412	    -15.42863607	     22.34467651	     22.34467651	     17.21898444	     -2.30408440	     -5.40651756	     26.08871029	     -6.25160713	     -1.26823333	     26.73572915	     26.73572915	      7.73725080	    -12.87772346	      3.83607389	     -8.33330964	      4.77621496	      4.76580013	     24.98777313	    -16.32221906	      3.09482122	     80.80051294	     44.53322975	      0.00000000	      0.00000000	      0.09578498	    -10.55034123	     -3.97705916	     35.50885212	     46.43700051	      0.00000000	      0.00000000
     36.03200000	     -3.52225511	     -4.92701387	      7.93289615	      1.05730592	      0.92318719	      0.41367056	      2.17158143	     -0.35587467	    -15.01163698	     24.91794337	     24.91794337	     16.53372827	     -3.53257729	     -6.35077994	     25.72624530	     -6.23337832	     -1.64121412	     26.58974024	     26.58974024	      8.07977287	    -12.52877968	      3.59419135	     -8.28547463	      4.68402571	      4.68387981	     24.38419931	    -16.34579514	      3.80564180	     79.23344079	     44.57124320	      0.00000000	      0.00000000	      0.79178514	    -10.70334003	     -3.72458425	     35.96546590	     46.40635946	      0.00000000	      0.00000000
     36.04500000	     -3.58583844	     -4.86424195	      7.72094516	      1.05705718	      0.92382971	      0.41117543	      3.55192864	     -1.01366832	    -14.53000983	     27.93532540	     27.93532540	     15.74711908	     -4.77440041	     -7.31892625	     25.21993224	     -6.15885500	     -2.07229941	     26.35773226	     26.35773226	      8.40935376	    -12.21623930	      3.35503889	     -8.35056434	      4.47836771	      4.66661133	     23.71645909	    -16.35850046	      4.36359600	     77.98600459	     44.59895073	      0.00000000	      0.00000000	      1.50397533	    -10.90035528	     -3.58553921	     36.46707997	     46.39451627	      0.00000000	      0.00000000
     36.05800000	     -3.65166553	     -4.81256022	      7.50145330	      1.05661932	      0.92437537	      0.40883905	      5.14432976	     -1.66334300	    -14.01436241	     31.24861151	     31.24861151	     14.69269832	     -6.18987590	     -8.28703865	     24.75601659	     -6.08567023	     -2.46034652	     26.17088783	     26.17088783	      8.70509745	    -11.97145769	      3.09786123	     -8.47642735	      4.29186363	      4.61842556	     22.98049810	    -16.34212966	      4.90507738	     76.73742427	     44.62549223	      0.00000000	      0.00000000	      2.24118801	    -11.09285223	     -3.45968074	     37.02912955	     46.38643599	      0.00000000	      0.00000000
